<?xml version="1.0" encoding="utf-8"?>
<!-- Svg Vector Icons : http://www.onlinewebfonts.com/icon -->
<!DOCTYPE svg PUBLIC "-//W3C//DTD SVG 1.1//EN" "http://www.w3.org/Graphics/SVG/1.1/DTD/svg11.dtd">
<svg version="1.1" xmlns="http://www.w3.org/2000/svg" xmlns:xlink="http://www.w3.org/1999/xlink" x="0px" y="0px" viewBox="0 0 256 256" enable-background="new 0 0 256 256" xml:space="preserve">
<metadata> Svg Vector Icons : http://www.onlinewebfonts.com/icon </metadata>
<g><g><path fill="#000000" d="M88.5,10H34.3C20.9,10,10,20.9,10,34.3v54.1c0,13.4,10.9,24.3,24.3,24.3h54.1c13.4,0,24.3-10.9,24.3-24.3V34.3C112.8,20.9,101.9,10,88.5,10z M96.6,88.4c0,4.5-3.6,8.1-8.1,8.1H34.3c-4.5,0-8.1-3.6-8.1-8.1V34.3c0-4.5,3.6-8.1,8.1-8.1h54.1c4.5,0,8.1,3.6,8.1,8.1V88.4L96.6,88.4z"/><path fill="#000000" d="M221.7,10h-54.1c-13.4,0-24.3,10.9-24.3,24.3v54.1c0,13.4,10.9,24.3,24.3,24.3h54.1c13.4,0,24.3-10.9,24.3-24.3V34.3C246,20.9,235.1,10,221.7,10z M229.8,88.4c0,4.5-3.6,8.1-8.1,8.1h-54.1c-4.5,0-8.1-3.6-8.1-8.1V34.3c0-4.5,3.6-8.1,8.1-8.1h54.1c4.5,0,8.1,3.6,8.1,8.1V88.4z"/><path fill="#000000" d="M221.7,143.2h-54.1c-13.4,0-24.3,10.9-24.3,24.3v54.1c0,13.4,10.9,24.3,24.3,24.3h54.1c13.4,0,24.3-10.9,24.3-24.3v-54.1C246,154.1,235.1,143.2,221.7,143.2z M229.8,221.6c0,4.5-3.6,8.1-8.1,8.1h-54.1c-4.5,0-8.1-3.6-8.1-8.1v-54.1c0-4.5,3.6-8.1,8.1-8.1h54.1c4.5,0,8.1,3.6,8.1,8.1V221.6z"/><path fill="#000000" d="M88.5,143.2H34.3c-13.4,0-24.3,10.9-24.3,24.3v54.1c0,13.4,10.9,24.3,24.3,24.3h54.1c13.4,0,24.3-10.9,24.3-24.3v-54.1C112.8,154.1,101.9,143.2,88.5,143.2z M96.6,221.6c0,4.5-3.6,8.1-8.1,8.1H34.3c-4.5,0-8.1-3.6-8.1-8.1v-54.1c0-4.5,3.6-8.1,8.1-8.1h54.1c4.5,0,8.1,3.6,8.1,8.1V221.6L96.6,221.6z"/></g></g>
</svg>